<?xml version="1.0" standalone="no"?>
<!DOCTYPE svg PUBLIC "-//W3C//DTD SVG 1.1//EN" "http://www.w3.org/Graphics/SVG/1.1/DTD/svg11.dtd" >
<!--
2015-1-19: Created.
-->
<svg xmlns="http://www.w3.org/2000/svg">
<metadata>
Created by FontForge 20110222 at Mon Jan 19 05:28:26 2015
 By Ubuntu
Created by Ubuntu with FontForge 2.0 (http://fontforge.sf.net)
</metadata>
<defs>
<font id="iconvault" horiz-adv-x="512" >
  <font-face 
    font-family="iconvault"
    font-weight="500"
    font-stretch="normal"
    units-per-em="512"
    panose-1="2 0 6 9 0 0 0 0 0 0"
    ascent="448"
    descent="-64"
    bbox="16 -46.4004 496 432"
    underline-thickness="25.6"
    underline-position="-51.2"
    unicode-range="U+F100-F11A"
  />
    <missing-glyph />
    <glyph glyph-name="uniF100" unicode="&#xf100;" 
d="M153.392 222.512c-48.5273 0 -88 39.4727 -88 88c0 48.5283 39.4727 88 88 88c48.5283 0 88 -39.4717 88 -88c0 -48.5273 -39.4717 -88 -88 -88zM153.392 366.512c-30.8799 0 -56 -25.1201 -56 -56s25.1201 -56 56 -56c30.8809 0 56 25.1201 56 56s-25.1191 56 -56 56z
M359.648 222.512c-48.5127 0 -88 39.4727 -88 88c0 48.5283 39.4873 88 88 88c48.5117 0 88 -39.4717 88 -88c0 -48.5273 -39.4883 -88 -88 -88zM359.648 366.512c-30.8809 0 -56 -25.1201 -56 -56s25.1191 -56 56 -56c30.8799 0 56 25.1201 56 56s-25.1367 56 -56 56z
M151.792 -2.63965c-48.5283 0 -88 39.4873 -88 88c0 48.5117 39.4717 88 88 88s88 -39.4883 88 -88c0 -48.5127 -39.4717 -88 -88 -88zM151.792 141.36c-30.8799 0 -56 -25.1201 -56 -56s25.1201 -56 56 -56s56 25.1201 56 56s-25.1201 56 -56 56zM461.472 -5.51953
c6.1123 -6.36816 5.9043 -16.4961 -0.479492 -22.624c-3.08789 -2.95996 -7.08789 -4.44824 -11.0723 -4.44824c-4.20801 0 -8.40039 1.64746 -11.5518 4.92773l-38.2725 39.8398c-0.624023 0.65625 -0.895508 1.47266 -1.3916 2.19238
c-2.12793 1.02344 -4.12793 2.41602 -5.69629 4.41602c-5.45605 6.94336 -4.22363 17.0078 2.73633 22.4482c13.6641 10.6875 21.4883 26.7832 21.4883 44.1279c0 30.8799 -25.1201 56 -56 56c-30.8809 0 -56 -25.1201 -56 -56c0 -27.6484 22.2393 -52.0645 50.6074 -55.584
c8.76855 -1.07227 14.9922 -9.07227 13.9043 -17.8408c-0.992188 -8.0957 -7.88867 -14.0312 -15.8564 -14.0312c-0.655273 0 -1.31152 0.03125 -1.9834 0.12793c-44.8486 5.56738 -78.6719 43.0879 -78.6719 87.3281c0 48.5117 39.4873 88 88 88
c48.5117 0 88 -39.4883 88 -88c0 -21.0566 -7.4248 -40.9121 -20.6885 -56.5928z" />
    <glyph glyph-name="uniF101" unicode="&#xf101;" 
d="M489.92 245.728c6.94434 -5.4873 8.04785 -15.5518 2.56055 -22.4795c-3.15234 -4 -7.88867 -6.08008 -12.6084 -6.08008c-3.47168 0 -7.08789 1.12012 -10.0322 3.44043l-5.83984 4.43164v-193.04c0 -28.7041 -16.4482 -48 -41.5996 -48h-320
c-25.4561 0 -54.4004 20.5283 -54.4004 48v193.792l-6.32031 -5.18359c-6.92773 -5.47266 -16.7676 -4.28809 -22.2393 2.63965c-5.47266 6.92773 -4.28809 16.9922 2.63965 22.4795l202.768 160.272c17.4404 13.8076 44.832 13.8242 62.2881 0zM240 16h32v88.7041
c0 4.41602 -8 6.62402 -16 6.62402s-16 -2.20801 -16 -6.62402v-88.7041zM432 32v218.336l-165.056 130.561c-5.91992 4.67188 -16.5762 4.67188 -22.4805 0l-164.464 -129.809v-219.088c0 -7.32812 12.3682 -16 22.4004 -16h106.031
c0 0.240234 -0.431641 0.431641 -0.431641 0.671875v88.0322c0 18.6074 15.0078 38.6396 48 38.6396s48 -20.0322 48 -38.6396v-88.0322c0 -0.240234 0.320312 -0.431641 0.320312 -0.671875h118.08c6.67188 0 9.59961 5.3916 9.59961 16z" />
    <glyph glyph-name="uniF102" unicode="&#xf102;" 
d="M256 416c123.52 0 224 -100.48 224 -224s-100.48 -224 -224 -224s-224 100.48 -224 224s100.48 224 224 224zM144.608 35.9199c31.4395 -22.5117 69.8398 -35.9199 111.392 -35.9199c39.5684 0 76.3838 12.0479 106.976 32.6562
c-0.81543 0.175781 -1.63184 0.143555 -2.41602 0.447266c-23.6953 9.34473 -55.6475 20.0967 -74.2393 22.3203c-8.04883 0.976562 -14.1123 7.77637 -14.1123 15.8877v27.5049c0 4.87988 2.22363 9.4873 6.03223 12.5117c25.0713 19.9678 44.7197 70.4316 44.7197 114.896
c0 45.6484 -19.248 67.8242 -58.8477 67.8242c-41.5684 0 -62.6406 -22.8154 -62.6406 -67.8242c0 -39.1514 9.45605 -88.9912 36 -111.535c3.58398 -3.04004 5.64844 -7.50488 5.64844 -12.208v-29.5361c0 -8.35254 -6.43262 -15.3125 -14.7686 -15.9521
c-16.6074 -1.28027 -47.6152 -9.28027 -79.0078 -20.4004c-1.56738 -0.55957 -3.15137 -0.607422 -4.73535 -0.671875zM382.304 47.7441c40.1602 35.2158 65.6963 86.752 65.6963 144.256c0 105.872 -86.1279 192 -192 192s-192 -86.1279 -192 -192
c0 -56.96 25.0723 -108.032 64.5762 -143.232c-1.4082 7.61621 2.57617 15.3125 10.0801 17.9688c21.7441 7.69531 50.1113 16.2559 72.4639 20.208v8.5752c-38.5283 38.7363 -41.6484 109.232 -41.6484 130.704c0 62.5127 35.376 99.8242 94.6406 99.8242
c57.7441 0 90.8477 -36.3838 90.8477 -99.8242c0 -44.4473 -17.4082 -103.279 -50.752 -134.688v-6.7998c25.9844 -5.68066 57.6641 -17.7441 68.0635 -21.8398c6.38477 -2.52832 10.1445 -8.67285 10.0322 -15.1523z" />
    <glyph glyph-name="uniF103" unicode="&#xf103;" 
d="M383.552 -31.9678c-2.67188 0 -5.34375 0.671875 -7.75977 2.01562l-120.656 66.9277l-120.912 -66.5117c-5.35938 -2.95996 -11.9512 -2.57617 -16.9434 0.959961c-5.00781 3.53613 -7.55273 9.63184 -6.56055 15.6641l23.4404 142.368l-98.2246 101.04
c-4.12793 4.25586 -5.58398 10.4639 -3.72754 16.0957c1.83984 5.64844 6.65625 9.80859 12.5117 10.8164l77.5361 13.2959c8.81641 1.47168 16.9922 -4.36816 18.4805 -13.0723c1.4873 -8.7041 -4.35254 -16.9756 -13.0723 -18.4795l-47.584 -8.16016l82.6719 -85.04
c3.53613 -3.64844 5.13574 -8.75195 4.32031 -13.7441l-19.4082 -117.84l99.8076 54.9121c4.81641 2.65527 10.6719 2.65527 15.4727 -0.0322266l99.584 -55.2324l-19.0088 117.889c-0.81543 5.00781 0.816406 10.1113 4.35254 13.7275l82.3359 84.1279l-112.832 17.4082
c-5.28027 0.816406 -9.79199 4.20801 -12.0635 9.04004l-49.6006 106.192l-50.0322 -105.92c-3.77539 -8.00098 -13.3115 -11.4082 -21.3115 -7.63281c-7.98438 3.77637 -11.4082 13.3125 -7.63184 21.3125l64.5762 136.72c2.65527 5.59961 8.28711 9.16797 14.4639 9.16797
h0.03125c6.20801 -0.015625 11.8408 -3.61621 14.4648 -9.23145l60.3994 -129.312l135.168 -20.8643c5.93652 -0.912109 10.8477 -5.07129 12.752 -10.752c1.88867 -5.67969 0.432617 -11.9678 -3.74414 -16.2393l-98.4639 -100.608l22.96 -142.432
c0.976562 -6.04883 -1.59961 -12.1289 -6.60742 -15.6484c-2.73633 -1.96777 -5.95215 -2.92773 -9.18457 -2.92773z" />
    <glyph glyph-name="uniF104" unicode="&#xf104;" 
d="M448.784 64c8.84766 0 16 -7.15234 16 -16s-7.15234 -16 -16 -16h-48.7842v-49.2158c0 -8.84863 -7.15234 -16 -16 -16s-16 7.15137 -16 16v49.2158h-47.3438c-8.84863 0 -16 7.15234 -16 16s7.15137 16 16 16h47.3438v46.9121c0 8.84766 7.15234 16 16 16
s16 -7.15234 16 -16v-46.9121h48.7842zM234 -33.7119c-43.4883 0 -185.36 5.98438 -185.36 83.0879c0 42.7363 63.7119 66.832 128.017 76.0156v18.832c-42.3359 40.6084 -46.8965 94.5439 -47.7441 142.272c0 79.248 43.0723 128.304 112.416 128.304
c73.8721 0 111.328 -43.0723 111.328 -128.016c0 -39.6807 -15.8242 -73.2158 -32.0479 -104.145l-15.9521 -33.0078v-38.8477c0 -8.84863 -7.15234 -16 -16 -16c-8.84863 0 -16 7.15137 -16 16v42.4961c0 2.39941 0.543945 4.7998 1.59961 6.97559l17.7764 36.7686
c15.2002 28.9912 28.624 57.3115 28.624 89.7432c0 67.2969 -23.7119 96.0166 -79.3281 96.0166c-72.5918 0 -80.416 -67.1523 -80.416 -96.0166c0.975586 -54.3359 8.36816 -94.0801 42.2236 -123.392c3.50391 -3.02441 5.52051 -7.45605 5.52051 -12.0957v-40
c0 -8.16016 -6.14453 -15.0078 -14.2559 -15.9043c-68.0488 -7.44043 -113.761 -29.792 -113.761 -46c0 -37.4883 91.7119 -51.0879 153.36 -51.0879c31.1836 0 83.9199 7.28027 84.4482 7.34375c8.73535 1.28027 16.832 -4.89551 18.0479 -13.6475
s-4.89648 -16.832 -13.6484 -18.0488c-2.23926 -0.303711 -55.4395 -7.64746 -88.8477 -7.64746z" />
    <glyph glyph-name="uniF105" unicode="&#xf105;" 
d="M256 -16c-4.0957 0 -8.19238 1.56836 -11.3115 4.68848l-48 48c-6.25684 6.25586 -6.25684 16.3672 0 22.623c6.25586 6.25684 16.3672 6.25684 22.623 0l36.6885 -36.6875l36.6875 36.6875c2.99219 3.00879 7.05664 4.68848 11.3125 4.68848h112
c8.83203 0 16 7.16797 16 16v256c0 8.81641 -7.16797 16 -16 16h-320c-8.81641 0 -16 -7.18359 -16 -16v-256c0 -8.83203 7.18359 -16 16 -16h48c8.83203 0 16 -7.15234 16 -16s-7.16797 -16 -16 -16h-48c-26.4639 0 -48 21.5361 -48 48v256c0 26.4639 21.5361 48 48 48h320
c26.4639 0 48 -21.5361 48 -48v-256c0 -26.4639 -21.5361 -48 -48 -48h-105.376l-43.3125 -43.3115c-3.11914 -3.12012 -7.21582 -4.68848 -11.3115 -4.68848zM168 192c-13.2324 0 -24 10.7676 -24 24s10.7676 24 24 24s24 -10.7676 24 -24s-10.7676 -24 -24 -24zM264 192
c-13.2324 0 -24 10.7676 -24 24s10.7676 24 24 24s24 -10.7676 24 -24s-10.7676 -24 -24 -24zM360 192c-13.2324 0 -24 10.7676 -24 24s10.7676 24 24 24s24 -10.7676 24 -24s-10.7676 -24 -24 -24z" />
    <glyph glyph-name="uniF106" unicode="&#xf106;" 
d="M192 288c-8.83203 0 -16 7.16797 -16 16s7.16797 16 16 16h256c8.84766 0 16 -7.16797 16 -16s-7.15234 -16 -16 -16h-256zM448 208c8.84766 0 16 -7.16797 16 -16s-7.15234 -16 -16 -16h-256c-8.83203 0 -16 7.16797 -16 16s7.16797 16 16 16h256zM448 96
c8.84766 0 16 -7.15234 16 -16s-7.15234 -16 -16 -16h-256c-8.83203 0 -16 7.15234 -16 16s7.16797 16 16 16h256zM96 304zM64 304c0 17.6641 14.3359 32 32 32s32 -14.3359 32 -32s-14.3359 -32 -32 -32s-32 14.3359 -32 32zM96 192zM64 192c0 17.6641 14.3359 32 32 32
s32 -14.3359 32 -32s-14.3359 -32 -32 -32s-32 14.3359 -32 32zM96 80zM64 80c0 17.6641 14.3359 32 32 32s32 -14.3359 32 -32s-14.3359 -32 -32 -32s-32 14.3359 -32 32z" />
    <glyph glyph-name="uniF107" unicode="&#xf107;" 
d="M476.752 -6.12793c6.03223 -6.44824 5.67969 -16.5762 -0.767578 -22.5762c-3.08789 -2.89551 -7.00781 -4.32031 -10.9287 -4.32031c-4.27148 0 -8.54395 1.69629 -11.6797 5.07227l-82.752 88.5439c-0.543945 0.576172 -0.767578 1.3125 -1.2002 1.95215
c-0.543945 0.400391 -1.16797 0.576172 -1.64746 1.04004c-6.35254 6.12793 -6.56055 16.2559 -0.432617 22.624c31.6162 32.9121 49.04 76.1924 49.04 121.872c0 97.04 -78.96 175.984 -176.016 175.984c-97.04 0 -175.984 -78.9609 -175.984 -175.984
c0 -97.04 78.9443 -175.984 175.984 -175.984c25.4395 0.0166016 49.9521 5.3125 72.8799 15.7441c7.98438 3.69629 17.5195 0.12793 21.1836 -7.93555c3.66406 -8.03223 0.112305 -17.5205 -7.93555 -21.1846c-27.0879 -12.3359 -56.0645 -18.6074 -86.1123 -18.624
c-114.688 0 -208 93.2959 -208 207.984c0 114.688 93.3125 207.984 207.984 207.984c114.704 0 208.016 -93.3125 208.016 -207.984c0 -48.8799 -17.0078 -95.3125 -47.9355 -132.561z" />
    <glyph glyph-name="uniF108" unicode="&#xf108;" 
d="M62.0156 292.16v64h64v-64h-64zM197.664 292.16v64h256v-64h-256zM62.0156 160v64h64v-64h-64zM197.696 160v64h256v-64h-256zM62.0156 9.98438v64h64v-64h-64zM197.696 9.98438v64h256v-64h-256z" />
    <glyph glyph-name="uniF109" unicode="&#xf109;" 
d="M429.328 16h-346.656c-27.9355 0 -50.6719 22.7197 -50.6719 50.6562v250.688c0 27.9365 22.7363 50.6562 50.6719 50.6562h346.656c27.9355 0 50.6719 -22.7197 50.6719 -50.6562v-250.688c0 -27.9365 -22.7363 -50.6562 -50.6719 -50.6562zM82.6719 336
c-10.3037 0 -18.6719 -8.36816 -18.6719 -18.6562v-250.688c0 -10.2881 8.36816 -18.6562 18.6719 -18.6562h346.656c10.3037 0 18.6719 8.36816 18.6719 18.6562v250.688c0 10.2881 -8.36816 18.6562 -18.6719 18.6562h-346.656zM400 240h-288
c-8.83203 0 -16 7.16797 -16 16s7.16797 16 16 16h288c8.84766 0 16 -7.16797 16 -16s-7.15234 -16 -16 -16zM160 80h-48c-8.83203 0 -16 7.15234 -16 16s7.16797 16 16 16h48c8.83203 0 16 -7.15234 16 -16s-7.16797 -16 -16 -16z" />
    <glyph glyph-name="uniF10A" unicode="&#xf10a;" 
d="M256 -31.0078c-59.8242 0 -116.064 23.1836 -158.368 65.2803c-42.3203 42.1279 -65.6318 98.1279 -65.6318 157.728c0 59.584 23.3115 115.6 65.6162 157.712c42.3037 42.0957 98.5439 65.2803 158.368 65.2803c59.8232 0 116.063 -23.1846 158.352 -65.2803
c42.3359 -42.1123 65.6318 -98.1279 65.6318 -157.696c0.0166016 -59.5996 -23.2959 -115.615 -65.6318 -157.728c-42.2715 -42.0957 -98.5117 -65.2959 -158.336 -65.2959zM256 383.008c-51.3115 0 -99.5361 -19.8721 -135.792 -55.9678
c-36.2402 -36.0645 -56.208 -84.0322 -56.208 -135.04s19.9521 -98.9756 56.1924 -135.024c36.2559 -36.0957 84.4795 -55.9678 135.792 -55.9678c51.2959 0 99.5352 19.8721 135.792 55.9678c36.2393 36.0801 56.208 84.0322 56.1914 135.04
c0 51.0088 -19.9521 98.96 -56.1914 135.009c-36.2402 36.0957 -84.4805 55.9834 -135.776 55.9834zM368 208c8.84766 0 16 -7.16797 16 -16s-7.15234 -16 -16 -16h-96v-96c0 -8.84766 -7.16797 -16 -16 -16s-16 7.15234 -16 16v96h-96c-8.83203 0 -16 7.16797 -16 16
s7.16797 16 16 16h96v96c0 8.83203 7.16797 16 16 16s16 -7.16797 16 -16v-96h96z" />
    <glyph glyph-name="uniF10B" unicode="&#xf10b;" 
d="M380.528 181.936c-0.928711 -1.63184 -1.64844 -3.37598 -3.00879 -4.7998c-0.255859 -0.255859 -0.527344 -0.431641 -0.783203 -0.671875c-0.335938 -0.351562 -0.463867 -0.81543 -0.800781 -1.15234l-175.023 -168.688
c-4.65625 -4.48047 -10.6562 -6.71973 -16.6562 -6.71973c-6.28809 0 -12.5762 2.44727 -17.2803 7.34375c-9.19922 9.55176 -8.91113 24.7363 0.624023 33.9355l157.856 152.145l-158.48 149.92c-9.63184 9.12012 -10.0479 24.3037 -0.943359 33.9355
c9.12012 9.61621 24.3037 10.0488 33.9355 0.944336l176.624 -167.056c7.79199 -7.36035 9.23242 -18.5605 4.83203 -27.7119c-0.223633 -0.512695 -0.639648 -0.928711 -0.895508 -1.4248z" />
    <glyph glyph-name="uniF10C" unicode="&#xf10c;" 
d="M480.478 374.23l-218.419 -218.418l-17.5918 17.5918l218.419 218.418zM174.071 67.834l-17.5938 17.5938l52.8027 52.7773l17.5938 -17.5938zM455.068 -6.81348v273.708h24.8838v-298.591h-12.4414h-423.003h-12.4414v423.004v24.8818h323.474v-24.8818h-298.591
v-398.121h398.119z" />
    <glyph glyph-name="uniF10D" unicode="&#xf10d;" 
d="M256 -32c-123.52 0 -224 100.48 -224 224s100.48 224 224 224s224 -100.48 224 -224s-100.48 -224 -224 -224zM256 384c-105.872 0 -192 -86.1279 -192 -192s86.1279 -192 192 -192s192 86.1279 192 192s-86.1279 192 -192 192zM334.416 197.424
c2.38379 -5.80762 1.2002 -12.7197 -3.55176 -17.4082l-80.1279 -79.248c-3.12012 -3.07129 -7.18457 -4.62402 -11.248 -4.62402c-4.12793 0 -8.25586 1.58398 -11.376 4.75293c-6.20801 6.28711 -6.16016 16.3994 0.12793 22.623l68.7041 67.9521l-68.1445 68.3359
c-6.24023 6.25684 -6.22363 16.3848 0.0322266 22.624c6.25586 6.25586 16.3838 6.22461 22.624 -0.03125l79.4561 -79.6807c0.015625 -0.015625 0.015625 -0.0322266 0.0322266 -0.0478516c0.015625 -0.015625 0.03125 -0.015625 0.0478516 -0.0322266
c1.47168 -1.4873 2.52734 -3.21582 3.2959 -5.02344c0.0322266 -0.0644531 0.112305 -0.12793 0.12793 -0.192383z" />
    <glyph glyph-name="uniF10E" unicode="&#xf10e;" 
d="M304 64c-8.84766 0 -16 7.15234 -16 16v176c0 8.84766 7.15234 16 16 16s16 -7.15234 16 -16v-176c0 -8.84766 -7.15234 -16 -16 -16zM208 64c-8.84766 0 -16 7.15234 -16 16v176c0 8.84766 7.15234 16 16 16s16 -7.15234 16 -16v-176c0 -8.84766 -7.15234 -16 -16 -16z
M464 336c8.84766 0 16 -7.15234 16 -16s-7.15234 -16 -16 -16h-416c-8.84766 0 -16 7.15234 -16 16s7.15234 16 16 16h80v32c0 26.4639 21.5361 48 48 48h160.368c26.2715 0 47.6318 -21.5361 47.6318 -48v-32h80zM160 368v-32h192v32c0 8.97559 -6.86426 16 -15.6318 16
h-160.368c-8.81641 0 -16 -7.18359 -16 -16zM368.064 -32h-224.032c-26.4639 0 -48 21.5361 -48 48v240.24c0 8.83203 7.16797 16 16 16s16 -7.16797 16 -16v-240.24c0 -8.83203 7.18359 -16 16 -16h224.032c8.83203 0 16 7.16797 16 16v239.584c0 8.83203 7.15137 16 16 16
c8.84766 0 16 -7.16797 16 -16v-239.584c0 -26.4639 -21.5361 -48 -48 -48z" />
    <glyph glyph-name="uniF10F" unicode="&#xf10f;" 
d="M263.216 -14.0322c-10.4795 0 -22.0801 6.28809 -34.4795 18.6719l-91.3604 91.3604h-41.376c-26.4639 0 -48 21.5361 -48 48v96c0 26.4639 21.5361 48 48 48h41.376l91.3125 91.3125c12.2871 12.2871 23.8711 18.5117 34.4316 18.5117
c11.4717 0 24.8799 -7.82422 24.8799 -29.8242v-352c0 -22.1758 -13.3604 -30.0322 -24.7842 -30.0322zM96 256c-8.81641 0 -16 -7.18359 -16 -16v-96c0 -8.83203 7.18359 -16 16 -16h48c4.24023 0 8.32031 -1.67969 11.3115 -4.68848l96.0322 -96.0479
c1.69629 -1.67969 3.24805 -3.10352 4.65625 -4.28809v338.017c-1.3916 -1.16797 -2.97559 -2.5918 -4.68848 -4.30371l-96 -96c-2.99121 -3.00879 -7.07129 -4.68848 -11.3115 -4.68848h-48zM343.792 82.8164c-3.23242 0 -6.49609 0.975586 -9.32812 3.00781
c-7.16797 5.15137 -8.81543 15.1514 -3.66406 22.3359l6.33594 8.67188c16.5605 22.4482 30.8643 41.8564 30.8643 75.168c0 34.5117 -12.6719 51.2637 -28.7197 72.4639c-2.83203 3.72852 -5.66406 7.50391 -8.46387 11.3926
c-5.15234 7.16797 -3.52051 17.168 3.66406 22.3359c7.18359 5.18359 17.168 3.51953 22.3359 -3.66406c2.62402 -3.66406 5.32715 -7.23242 7.9834 -10.752c17.3125 -22.8799 35.2002 -46.5283 35.2002 -91.7764c0 -43.8242 -19.6963 -70.5596 -37.0723 -94.1602
l-6.11133 -8.36816c-3.13672 -4.35156 -8.03223 -6.65527 -13.0244 -6.65527zM398.224 28.4961c-3.74316 0 -7.51953 1.31152 -10.5439 3.96777c-6.63965 5.82422 -7.31152 15.9365 -1.4873 22.5762c32.1113 36.624 61.8076 78.5283 61.8076 136.96
s-29.6963 100.352 -61.8076 136.944c-5.82422 6.65527 -5.15234 16.752 1.4873 22.5918c6.6084 5.82422 16.7207 5.16797 22.5762 -1.47168c34.4805 -39.3447 69.7441 -88.8643 69.7441 -158.064s-35.2637 -118.736 -69.7441 -158.048
c-3.18359 -3.61621 -7.59961 -5.45605 -12.0322 -5.45605z" />
    <glyph glyph-name="uniF110" unicode="&#xf110;" 
d="M192 -16h-96c-26.4639 0 -48 21.5361 -48 48v96c0 26.4639 21.5361 48 48 48h96c26.4639 0 48 -21.5361 48 -48v-96c0 -26.4639 -21.5361 -48 -48 -48zM96 144c-8.81641 0 -16 -7.16797 -16 -16v-96c0 -8.83203 7.18359 -16 16 -16h96c8.81641 0 16 7.16797 16 16v96
c0 8.83203 -7.18359 16 -16 16h-96zM368 0c-8.84766 0 -16 7.15234 -16 16v32c0 8.84766 7.15234 16 16 16s16 -7.15234 16 -16v-32c0 -8.84766 -7.15234 -16 -16 -16zM432 0c-8.84766 0 -16 7.15234 -16 16v48c0 8.84766 7.15234 16 16 16s16 -7.15234 16 -16v-48
c0 -8.84766 -7.15234 -16 -16 -16zM432 112c-8.84766 0 -16 7.15234 -16 16v32c0 8.84766 7.15234 16 16 16s16 -7.15234 16 -16v-32c0 -8.84766 -7.15234 -16 -16 -16zM368 80c-8.84766 0 -16 7.15234 -16 16v64c0 8.84766 7.15234 16 16 16s16 -7.15234 16 -16v-64
c0 -8.84766 -7.15234 -16 -16 -16zM304 0c-8.84766 0 -16 7.15234 -16 16v64c0 8.84766 7.15234 16 16 16s16 -7.15234 16 -16v-64c0 -8.84766 -7.15234 -16 -16 -16zM304 128c-8.84766 0 -16 7.15234 -16 16v16c0 8.84766 7.15234 16 16 16s16 -7.15234 16 -16v-16
c0 -8.84766 -7.15234 -16 -16 -16zM160 48h-32c-8.83203 0 -16 7.15234 -16 16v32c0 8.84766 7.16797 16 16 16h32c8.83203 0 16 -7.15234 16 -16v-32c0 -8.84766 -7.16797 -16 -16 -16zM192 208h-96c-26.4639 0 -48 21.5361 -48 48v96c0 26.4639 21.5361 48 48 48h96
c26.4639 0 48 -21.5361 48 -48v-96c0 -26.4639 -21.5361 -48 -48 -48zM96 368c-8.81641 0 -16 -7.18359 -16 -16v-96c0 -8.81641 7.18359 -16 16 -16h96c8.81641 0 16 7.18359 16 16v96c0 8.81641 -7.18359 16 -16 16h-96zM160 272h-32c-8.83203 0 -16 7.16797 -16 16v32
c0 8.83203 7.16797 16 16 16h32c8.83203 0 16 -7.16797 16 -16v-32c0 -8.83203 -7.16797 -16 -16 -16zM416 208h-96c-26.4639 0 -48 21.5361 -48 48v96c0 26.4639 21.5361 48 48 48h96c26.4639 0 48 -21.5361 48 -48v-96c0 -26.4639 -21.5361 -48 -48 -48zM320 368
c-8.83203 0 -16 -7.18359 -16 -16v-96c0 -8.81641 7.16797 -16 16 -16h96c8.83203 0 16 7.18359 16 16v96c0 8.81641 -7.16797 16 -16 16h-96zM384 272h-32c-8.84766 0 -16 7.16797 -16 16v32c0 8.83203 7.15234 16 16 16h32c8.84766 0 16 -7.16797 16 -16v-32
c0 -8.83203 -7.15234 -16 -16 -16z" />
    <glyph glyph-name="uniF111" unicode="&#xf111;" 
d="M256 55.8242zM232 55.8242c0 13.248 10.752 24 24 24s24 -10.752 24 -24s-10.752 -24 -24 -24s-24 10.752 -24 24zM256 -32c-123.52 0 -224 100.48 -224 224s100.48 224 224 224s224 -100.48 224 -224s-100.48 -224 -224 -224zM256 383.856
c-105.792 0 -191.856 -86.0645 -191.856 -191.856c0 -105.776 86.0645 -191.856 191.856 -191.856c105.776 0 191.856 86.0801 191.856 191.856c0 105.792 -86.0801 191.856 -191.856 191.856zM256 111.152c-8.83203 0 -16 7.16797 -16 16v27.0557
c0 26.1758 20 46.1758 37.6641 63.8242c12.9443 12.96 26.3359 26.3359 26.3359 37.0078c0 26.6719 -21.5361 48.3682 -48 48.3682c-26.9121 0 -48 -20.7686 -48 -47.2803c0 -8.83203 -7.16797 -16 -16 -16s-16 7.16797 -16 16c0 43.7119 35.8877 79.2803 80 79.2803
s80 -36.0479 80 -80.3682c0 -23.9521 -18.1602 -42.0957 -35.7119 -59.6484c-13.9199 -13.8877 -28.2881 -28.2559 -28.2881 -41.168v-27.0557c0 -8.83203 -7.16797 -16.0156 -16 -16.0156z" />
    <glyph glyph-name="uniF112" unicode="&#xf112;" 
d="M400 -16h-288c-26.4639 0 -48 21.5361 -48 48v320c0 26.4639 21.5361 48 48 48h288c26.4639 0 48 -21.5361 48 -48v-320c0 -26.4639 -21.5361 -48 -48 -48zM112 368c-8.81641 0 -16 -7.18359 -16 -16v-320c0 -8.83203 7.18359 -16 16 -16h288c8.83203 0 16 7.16797 16 16
v320c0 8.81641 -7.16797 16 -16 16h-288zM320.496 175.568h-176.608c-8.83203 0 -16 7.16797 -16 16s7.16797 16 16 16h176.608c8.84766 0 16 -7.16797 16 -16s-7.15234 -16 -16 -16zM367.44 80.2402h-223.616c-8.83203 0 -16 7.15137 -16 16c0 8.84766 7.16797 16 16 16
h223.616c8.84766 0 16 -7.15234 16 -16c0 -8.84863 -7.15234 -16 -16 -16zM151.856 295.328zM127.856 295.328c0 13.248 10.752 24 24 24c13.2471 0 24 -10.752 24 -24s-10.7529 -24 -24 -24c-13.248 0 -24 10.752 -24 24zM255.552 295.328zM231.552 295.328
c0 13.248 10.752 24 24 24s24 -10.752 24 -24s-10.752 -24 -24 -24s-24 10.752 -24 24zM359.616 295.328zM335.616 295.328c0 13.248 10.752 24 24 24s24 -10.752 24 -24s-10.752 -24 -24 -24s-24 10.752 -24 24z" />
    <glyph glyph-name="uniF113" unicode="&#xf113;" 
d="M278.656 191.376l132.688 -133.088c6.24023 -6.27246 6.22461 -16.3838 -0.0322266 -22.624c-3.11914 -3.10449 -7.19922 -4.67188 -11.2959 -4.67188c-4.11133 0 -8.20801 1.56738 -11.3281 4.7041l-132.72 133.12l-132.607 -131.904
c-3.12012 -3.10449 -7.2002 -4.65625 -11.2803 -4.65625c-4.1123 0 -8.22363 1.58398 -11.3438 4.71973c-6.24023 6.27246 -6.20801 16.3848 0.0634766 22.624l132.576 131.872l-131.488 131.889c-6.23926 6.27148 -6.22363 16.3994 0.0322266 22.6396
c6.27246 6.24023 16.4004 6.20801 22.624 -0.0322266l131.521 -131.92l132.672 131.968c6.27148 6.24023 16.3672 6.22461 22.624 -0.0634766c6.23926 -6.27246 6.20801 -16.3838 -0.0644531 -22.624z" />
    <glyph glyph-name="uniF114" unicode="&#xf114;" 
d="M240 272c52.9443 0 96 -43.0557 96 -96s-43.0557 -96 -96 -96s-96 43.0557 -96 96s43.0557 96 96 96zM240 112c35.2959 0 64 28.7041 64 64s-28.7041 64 -64 64s-64 -28.7041 -64 -64s28.7041 -64 64 -64zM288 32c8.84766 0 16 -7.15234 16 -16s-7.15234 -16 -16 -16
h-208c-26.4639 0 -48 21.5361 -48 48v256c0 26.4639 21.5361 48 48 48h48c8.83203 0 16 -7.16797 16 -16s-7.16797 -16 -16 -16h-48c-8.81641 0 -16 -7.18359 -16 -16v-256c0 -8.83203 7.18359 -16 16 -16h208zM256 320c-8.83203 0 -16 7.16797 -16 16s7.16797 16 16 16h160
c26.4639 0 48 -21.5361 48 -48v-128c0 -8.84766 -7.15234 -16 -16 -16s-16 7.15234 -16 16v128c0 8.81641 -7.16797 16 -16 16h-160zM392 280zM368 280c0 13.248 10.752 24 24 24s24 -10.752 24 -24s-10.752 -24 -24 -24s-24 10.752 -24 24zM160 368
c-8.84766 0 -16 7.15234 -16 16s7.15234 16 16 16h64c8.84766 0 16 -7.15234 16 -16s-7.15234 -16 -16 -16h-64zM480 64c8.84766 0 16 -7.15234 16 -16s-7.15234 -16 -16 -16h-48v-48c0 -8.84766 -7.15234 -16 -16 -16s-16 7.15234 -16 16v48h-48
c-8.84766 0 -16 7.15234 -16 16s7.15234 16 16 16h48v48c0 8.84766 7.15234 16 16 16s16 -7.15234 16 -16v-48h48z" />
    <glyph glyph-name="uniF115" unicode="&#xf115;" 
d="M184.496 32.8477v-0.591797c-3.24805 0 -5.63184 -0.255859 -7.02441 -0.255859h-1.64746c-34.624 0 -62.4961 27.6797 -63.4727 62.2559c-0.527344 16.9766 5.60059 33.4082 17.2324 45.7441s27.3604 19.5684 44.3203 20.0479
c0.160156 0 1.87207 0.0957031 2.01562 0.0957031c13.2959 0 26.0322 -4.15918 36.9922 -12.1436c15.376 -5.42383 30.9121 2.16016 46.0957 22.5117c15.1045 20.208 18.2881 36.2246 9.44043 47.6162c-3.15234 2.27246 -6.17578 4.95996 -9.18457 8.16016
c-0.527344 0.511719 -1.02344 1.07227 -1.4873 1.64746c-9.93652 11.2168 -15.6328 25.4082 -16.0801 40.0322c-0.959961 35.0879 26.6875 64.4004 61.6162 65.3926c0.15918 0 1.79199 0.03125 1.95117 0.03125c29.3926 0 55.376 -20.832 61.7764 -49.5352
c5.16797 -15.9365 18.3516 -79.0889 -45.0879 -163.921c-58.6885 -78.5918 -115.664 -87.0879 -137.456 -87.0879zM182.448 64.8965c9.4873 -0.208008 59.2959 1.11914 113.808 74.207c55.6797 74.4648 43.0078 126.688 39.8877 136.416
c-3.55176 15.584 -16.3994 25.8887 -30.9434 25.8887c-18.3525 -0.511719 -32.0479 -15.0723 -31.584 -32.4961c0.288086 -9.24805 4.65625 -15.9844 8.27148 -19.9844c0.112305 -0.12793 0.240234 -0.271484 0.335938 -0.399414
c2.0166 -2.17676 3.9043 -3.82422 5.77637 -5.04004c1.18359 -0.78418 2.28809 -1.71191 3.21582 -2.78418c9.80859 -11.0557 28.7998 -41.9199 -6.63965 -89.3125c-22.8965 -30.6396 -46.3525 -37.0557 -62 -37.0713c-8.04785 0 -16.0479 1.64746 -23.7598 4.86328
c-1.32812 0.560547 -2.59277 1.29688 -3.72852 2.19238c-3.98438 3.13574 -10.5439 6.87988 -19.2158 6.87988c-9.48828 -0.271484 -17.2803 -3.75977 -23.0244 -9.85547c-5.75977 -6.12793 -8.7998 -14.1445 -8.54395 -22.5605
c0.480469 -17.2002 14.3203 -30.624 31.4883 -30.624c0.0800781 0 0.0957031 -0.015625 0.0322266 -0.0322266c0.591797 0.0966797 1.24805 0.176758 1.63184 0.208008c1.71191 0.0166016 3.3916 -0.111328 4.99219 -0.495117zM256 -33.6641
c-30.1123 0 -59.3115 5.87207 -86.7998 17.4404c-8.14453 3.43945 -11.9678 12.8154 -8.52832 20.96c3.42383 8.16016 12.8164 11.9521 20.96 8.54395c23.5361 -9.9043 48.5605 -14.9443 74.3838 -14.9443c105.872 0 192 86.1279 192 192s-86.1279 192 -192 192
s-192 -86.1279 -192 -192c0 -36.1924 10.1279 -71.4395 29.2803 -101.952c4.68848 -7.4873 2.43164 -17.3594 -5.04004 -22.0479c-7.48828 -4.7041 -17.3604 -2.44824 -22.0635 5.04004c-22.3848 35.6318 -34.1924 76.7676 -34.1924 118.96c0 123.504 100.48 224 224 224
s224 -100.479 224 -224c0 -123.504 -100.48 -224 -224 -224z" />
    <glyph glyph-name="uniF116" unicode="&#xf116;" 
d="M400 208c8.84766 0 16 -7.16797 16 -16s-7.15234 -16 -16 -16h-128v-128c0 -8.84766 -7.16797 -16 -16 -16s-16 7.15234 -16 16v128h-128c-8.83203 0 -16 7.16797 -16 16s7.16797 16 16 16h128v128c0 8.83203 7.16797 16 16 16s16 -7.16797 16 -16v-128h128z" />
    <glyph glyph-name="uniF117" unicode="&#xf117;" 
d="M288 -46.4004h-64c-35.2959 0 -64 28.7041 -64 64v27.8408c0 22.2559 -13.2002 56.1592 -28.2402 72.5596c-1.43945 1.59961 -35.7598 39.6484 -35.7598 95.1523c0 88.2236 71.7764 160 160 160s160 -71.7764 160 -160c0 -55.5205 -34.3203 -93.5684 -35.7598 -95.1523
c-15.0566 -16.3838 -28.2402 -50.3037 -28.2402 -72.5596v-27.8408c0 -35.2959 -28.7041 -64 -64 -64zM256 341.152c-70.5762 0 -128 -57.4238 -128 -128c0 -43.2002 27.0723 -73.2324 27.3604 -73.5361c20.5439 -22.4004 36.6396 -63.7764 36.6396 -94.1924v-27.8398
c0 -17.6484 14.3516 -32 32 -32h64c17.6484 0 32 14.3516 32 32v27.8398c0 30.416 16.0957 71.7764 36.6396 94.1924c0.240234 0.271484 27.3604 30.7998 27.3604 73.5361c0 70.5752 -57.4238 128 -128 128zM320 160c-6.7041 0 -12.9443 4.24023 -15.168 10.9443
l-7.82422 23.4395l-29.6797 -29.6953c-6.25586 -6.25684 -16.3682 -6.25684 -22.624 0l-29.6963 29.6953l-7.80762 -23.4395c-2.7998 -8.36816 -11.8398 -12.9443 -20.2402 -10.1123c-8.38379 2.78418 -12.9121 11.8398 -10.1123 20.2402l16 48
c1.76074 5.26367 6.1123 9.23145 11.5039 10.5117c5.37598 1.28027 11.0723 -0.335938 14.9922 -4.25586l36.6562 -36.7041l36.6875 36.6875c3.9043 3.9209 9.58496 5.52051 14.9922 4.25684c5.4082 -1.28027 9.74414 -5.24805 11.5039 -10.5127l16 -48
c2.80078 -8.38379 -1.72754 -17.4561 -10.1113 -20.2393c-1.69629 -0.543945 -3.4082 -0.816406 -5.07227 -0.816406zM431.84 319.84c-4.36816 0 -8.71973 1.77637 -11.8721 5.28027c-5.91992 6.55957 -5.4082 16.6719 1.15234 22.6074l16.2559 14.6562
c6.54395 5.91992 16.6562 5.4082 22.5918 -1.16797c5.91992 -6.55957 5.4082 -16.6719 -1.15137 -22.6074l-16.2568 -14.6406c-3.05566 -2.76758 -6.89551 -4.12793 -10.7197 -4.12793zM80.1758 319.84c-3.82422 0 -7.64746 1.36035 -10.7041 4.1123l-16.2559 14.6719
c-6.55957 5.91992 -7.07227 16.0322 -1.16797 22.6084c5.9043 6.5752 16.0166 7.08789 22.6084 1.16797l16.2559 -14.6562c6.55957 -5.91992 7.07227 -16.0322 1.16797 -22.6084c-3.16797 -3.50391 -7.52051 -5.2959 -11.9043 -5.2959zM256 384
c-8.83203 0 -16 7.16797 -16 16v16c0 8.83203 7.16797 16 16 16s16 -7.16797 16 -16v-16c0 -8.83203 -7.16797 -16 -16 -16zM288 16h-64c-8.83203 0 -16 7.15234 -16 16s7.16797 16 16 16h64c8.84766 0 16 -7.15234 16 -16s-7.15234 -16 -16 -16z" />
    <glyph glyph-name="uniF118" unicode="&#xf118;" 
d="M443.952 298.896c6.43164 -6.06445 6.76758 -16.1924 0.6875 -22.6084l-224.592 -239.104c-0.0478516 -0.0478516 -0.112305 -0.0634766 -0.143555 -0.111328c-0.0478516 -0.0478516 -0.0644531 -0.12793 -0.112305 -0.175781
c-1.02441 -1.04004 -2.27246 -1.63281 -3.47168 -2.33691c-0.608398 -0.351562 -1.12012 -0.911133 -1.77637 -1.18359c-1.95215 -0.832031 -4.04785 -1.24805 -6.14355 -1.24805c-1.98438 0 -3.98438 0.383789 -5.87207 1.12012
c-0.608398 0.240234 -1.10449 0.736328 -1.68066 1.07227c-1.16797 0.639648 -2.38379 1.18359 -3.3916 2.14355c-0.0478516 0.0478516 -0.0644531 0.112305 -0.112305 0.160156s-0.111328 0.0644531 -0.160156 0.112305l-128.239 126.336
c-6.30469 6.19141 -6.38477 16.3359 -0.176758 22.624c6.20801 6.30371 16.3359 6.36816 22.6406 0.160156l116.56 -114.849l213.376 227.185c6.03223 6.44727 16.1758 6.73535 22.6084 0.704102z" />
    <glyph glyph-name="uniF119" unicode="&#xf119;" 
d="M81.7598 233.824v128h128v-128h-128zM295.712 233.824v128h128v-128h-128zM81.7598 34.8164v128h128v-128h-128zM295.712 34.8164v128h128v-128h-128z" />
    <glyph glyph-name="uniF11A" unicode="&#xf11a;" 
d="M400 -32h-288c-26.4639 0 -48 21.5361 -48 48v320c0 26.4639 21.5361 48 48 48h224c8.84766 0 16 -7.16797 16 -16s-7.15234 -16 -16 -16h-224c-8.81641 0 -16 -7.18359 -16 -16v-320c0 -8.83203 7.18359 -16 16 -16h288c8.83203 0 16 7.16797 16 16v256
c0 8.83203 7.15234 16 16 16s16 -7.16797 16 -16v-256c0 -26.4639 -21.5361 -48 -48 -48zM306 224c-4.0957 0 -8.19238 1.56836 -11.3125 4.68848c-6.25586 6.25586 -6.25586 16.3672 0 22.623l159.009 159.009c6.25586 6.25586 16.3682 6.25586 22.624 0
s6.25586 -16.3682 0 -22.624l-159.009 -159.008c-3.11914 -3.13672 -7.21582 -4.68848 -11.3115 -4.68848zM240 224h-96c-8.83203 0 -16 7.16797 -16 16s7.16797 16 16 16h96c8.83203 0 16 -7.16797 16 -16s-7.16797 -16 -16 -16zM336 128h-192
c-8.83203 0 -16 7.15234 -16 16s7.16797 16 16 16h192c8.84766 0 16 -7.15234 16 -16s-7.15234 -16 -16 -16z" />
  </font>
</defs>
</svg>
